<svg width="500" height="500" fill="none" xmlns="http://www.w3.org/2000/svg">
    <g clip-path="url(#a)">
        <circle cx="250" cy="250" r="250" fill="#fff"/>
        <path fill-rule="evenodd" clip-rule="evenodd"
              d="M500 250c0 138.071-111.929 250-250 250S0 388.071 0 250 111.929 0 250 0s250 111.929 250 250Zm-391.934 71.299c4.519 0 6.778-.036 6.778-.107v.107c1.506 0 2.761.534 3.765 1.602 1.075.997 1.613 2.243 1.613 3.738 0 1.424-.538 2.67-1.613 3.738-1.004 1.068-2.259 1.567-3.765 1.496H56V348h58.844c5.952 0 11.008-2.065 15.168-6.195 4.231-4.201 6.347-9.22 6.347-15.059 0-5.91-2.116-10.965-6.347-15.166-4.16-4.201-9.216-6.302-15.168-6.302H77.6226c-1.3626 0-2.6177-.534-3.7651-1.602-1.0758-1.068-1.6136-2.314-1.6136-3.738 0-1.495.5378-2.741 1.6136-3.738 1.0757-1.068 2.3308-1.638 3.7651-1.709h59.1664v-16.02l-59.1664.106c-5.8808 0-10.9368 2.101-15.1681 6.302-4.2313 4.13-6.3469 9.149-6.3469 15.059 0 5.839 2.1156 10.859 6.3469 15.06 4.2313 4.201 9.2873 6.301 15.1681 6.301h30.4434Zm50.217 26.594v-26.594h37.651c5.953 0 11.009-2.065 15.168-6.195 4.232-4.201 6.347-9.22 6.347-15.059 0-5.91-2.115-10.965-6.347-15.166-4.159-4.201-9.215-6.337-15.168-6.408h-53.787v69.422h16.136Zm0-42.721v-10.681l37.651.107c1.506 0 2.761.534 3.765 1.602 1.076.997 1.614 2.243 1.614 3.738 0 1.424-.538 2.67-1.614 3.738-1.075 1.068-2.33 1.567-3.765 1.496h-37.651Zm123.711 16.02h-.029l-14.48-25.339c-1.883-1.57-4.243-1.949-6.357-1.137-.112.029-.221.061-.326.096-.211.078-.422.2-.633.365-.331.193-.652.419-.961.676l-20.279 34.765v17.168h-16.101v-21.574l21.838-37.168c1.864-3.275 4.375-5.838 7.53-7.69 3.156-1.922 6.813-2.883 10.973-2.883 4.231 0 7.853.818 10.865 2.456 3.084 1.638 5.701 4.379 7.853 8.224l21.622 37.061v21.574h-16.136v-17.409l-5.379-9.185Zm48.388 26.701h43.03v-16.02l-43.03.106c-1.434 0-2.689-.534-3.765-1.602s-1.614-2.349-1.614-3.845v-26.594c0-1.21.431-2.278 1.291-3.204.861-.997 1.793-1.638 2.797-1.922.215-.072.431-.107.646-.107l.645-.214h43.03v-16.02l-43.03.106c-5.881 0-10.937 2.101-15.168 6.302-4.231 4.13-6.347 9.149-6.347 15.059v26.701c0 5.839 2.116 10.859 6.347 15.06 4.231 4.129 9.287 6.194 15.168 6.194Zm64.587-16.02h48.409v16.02h-64.545V306.5h61.856v14.692h-45.72v10.681ZM442.733 293v-14.529h-63.9V293h63.9ZM84.3183 241.084h54.9807v-20.789l-54.9807.139c-1.8327 0-3.4363-.693-4.8108-2.079-1.3746-1.386-2.0618-3.049-2.0618-4.989v-34.509c0-1.571.5498-2.957 1.6494-4.158 1.0996-1.293 2.2909-2.125 3.5738-2.495.2749-.092.5498-.138.8247-.138l.8247-.277h54.9807V151l-54.9807.139c-7.5141 0-13.9744 2.725-19.3808 8.176-5.4065 5.359-8.1098 11.873-8.1098 19.542V213.505c0 7.576 2.7033 14.09 8.1098 19.541 5.4064 5.359 11.8667 8.038 19.3808 8.038Zm70.0177-8.038c5.406 5.359 11.866 8.038 19.38 8.038h48.109c7.606 0 14.066-2.679 19.381-8.038 5.406-5.451 8.109-11.965 8.109-19.541v-34.648c0-7.669-2.703-14.183-8.109-19.542-5.315-5.451-11.775-8.223-19.381-8.315l-48.109.139c-7.514 0-13.974 2.725-19.38 8.176-5.407 5.359-8.11 11.873-8.11 19.542V213.505c0 7.576 2.703 14.09 8.11 19.541Zm72.3-14.691c-1.283 1.294-2.887 1.94-4.811 1.94l-48.109.139h-.687c-1.558-.277-2.978-1.062-4.261-2.356-1.283-1.293-1.924-2.864-1.924-4.712v-34.509c0-1.201.366-2.31 1.099-3.326.825-1.017 1.741-1.802 2.749-2.356.55-.37 1.1-.647 1.65-.832.55-.277 1.008-.462 1.374-.554l48.109.138c.183 0 .366.046.55.139h.687c1.375.369 2.657 1.201 3.849 2.494 1.191 1.202 1.787 2.587 1.787 4.158v34.787c0 1.847-.688 3.464-2.062 4.85ZM256.161 151c0 .092 3.528.139 10.584.139h56.631c7.605 0 14.066 2.725 19.381 8.176 5.406 5.359 8.109 11.873 8.109 19.542 0 3.141-.458 6.144-1.374 9.008-.917 2.772-2.108 5.359-3.574 7.761 2.108 2.403 3.711 5.128 4.811 8.177 1.099 3.049 1.649 6.283 1.649 9.702v27.579H331.76v-27.718c0-1.663-.595-3.141-1.787-4.435-1.099-1.294-2.428-2.079-3.986-2.356H276.779v34.648h-20.618v-55.582h20.618v.007h47.284c1.833.092 3.436-.555 4.811-1.941 1.374-1.385 2.062-3.002 2.062-4.85 0-1.94-.688-3.557-2.062-4.851-1.375-1.386-2.978-2.079-4.811-2.079v-.138h-47.284v.028h-20.618V151Zm185.562 69.295h-61.854v-13.859h58.417V186h-79.035v55.084h82.472v-20.789ZM440.898 151v20.5h-81.647V151h81.647ZM211 196c0 6.627-5.373 12-12 12s-12-5.373-12-12 5.373-12 12-12 12 5.373 12 12Zm52.311 130.441c5.523 0 10-4.477 10-10s-4.477-10-10-10-10 4.477-10 10 4.477 10 10 10Z"
              fill="url(#b)"/>
    </g>
    <defs>
        <linearGradient id="b" x1="333.333" y1="153.986" x2="451.087" y2="409.42"
                        gradientUnits="userSpaceOnUse">
            <stop stop-color="#6C979D"/>
            <stop offset="1" stop-color="#24382E"/>
        </linearGradient>
        <clipPath id="a">
            <path fill="#fff" d="M0 0h500v500H0z"/>
        </clipPath>
    </defs>
</svg>